# xmcd
#
# Track frame offsets: 
#        150
#        8117
#        28378
#        50786
#        65233
#        86041
#        105411
#        126448
#        182733
#
# Disc length: 3137 seconds
#
# Revision: 0
# Processed by: cddbd v1.5.2PL0 Copyright (c) Steve Scherf et al.
# Submitted via: ExactAudioCopyFreeDBPlugin 1.0
#
DISCID=820c3f09
DTITLE=Pee Wee Bluesgang - Bootlegged In Balve
DYEAR=2016
DGENRE=Blues
TTITLE0=Baktun
TTITLE1=Armageddon
TTITLE2=Too Much Soul
TTITLE3=What's Love About
TTITLE4=Saturday Night
TTITLE5=Dust My Broom
TTITLE6=German Rock'n Roll Band
TTITLE7=Tikki Bar Is Open
TTITLE8=Hey Joe
EXTD=
EXTT0=
EXTT1=
EXTT2=
EXTT3=
EXTT4=
EXTT5=
EXTT6=
EXTT7=
EXTT8=
PLAYORDER=
